<?xml version="1.0" encoding="UTF-8" standalone="no"?>
<!-- Created with Inkscape (http://www.inkscape.org/) -->

<svg
   xmlns:dc="http://purl.org/dc/elements/1.1/"
   xmlns:cc="http://creativecommons.org/ns#"
   xmlns:rdf="http://www.w3.org/1999/02/22-rdf-syntax-ns#"
   xmlns:svg="http://www.w3.org/2000/svg"
   xmlns="http://www.w3.org/2000/svg"
   xmlns:sodipodi="http://sodipodi.sourceforge.net/DTD/sodipodi-0.dtd"
   xmlns:inkscape="http://www.inkscape.org/namespaces/inkscape"
   width="150"
   height="95"
   viewBox="0 0 39.687501 25.135417"
   version="1.1"
   id="svg8"
   sodipodi:docname="logo.svg"
   inkscape:version="0.92.4 (5da689c313, 2019-01-14)">
  <defs
     id="defs2">
    <inkscape:path-effect
       effect="bend_path"
       id="path-effect4556"
       is_visible="true"
       bendpath="M 58.604102,103.71486 C 43.684205,85.711523 78.757357,42.191058 131.93911,104.71281"
       prop_scale="1.0569027"
       scale_y_rel="false"
       vertical="false"
       bendpath-nodetypes="cc" />
  </defs>
  <sodipodi:namedview
     id="base"
     pagecolor="#ffffff"
     bordercolor="#666666"
     borderopacity="1.0"
     inkscape:pageopacity="0.0"
     inkscape:pageshadow="2"
     inkscape:zoom="0.98994949"
     inkscape:cx="8.732484"
     inkscape:cy="133.51507"
     inkscape:document-units="px"
     inkscape:current-layer="layer1"
     showgrid="false"
     inkscape:window-width="1366"
     inkscape:window-height="715"
     inkscape:window-x="-8"
     inkscape:window-y="-8"
     inkscape:window-maximized="1"
     inkscape:pagecheckerboard="true"
     units="px" />
  <metadata
     id="metadata5">
    <rdf:RDF>
      <cc:Work
         rdf:about="">
        <dc:format>image/svg+xml</dc:format>
        <dc:type
           rdf:resource="http://purl.org/dc/dcmitype/StillImage" />
        <dc:title />
      </cc:Work>
    </rdf:RDF>
  </metadata>
  <g
     inkscape:label="Layer 1"
     inkscape:groupmode="layer"
     id="layer1"
     transform="translate(0,-271.86458)">
    <path
       id="path837"
       d="m 9.726378,276.6148 c -0.9888233,0 -1.7924314,0.7837 -1.8322623,1.76454 0.00294,0.0579 0.00415,0.11557 0.012039,0.17124 l 1.184995,7.56507 h 6.3571573 v -0.42819 h 0.869334 c 1.140181,0 2.07424,-0.56462 2.07424,-1.78547 0,-1.22183 -0.656231,-1.82728 -1.819318,-1.82728 -1.207902,0 -1.853178,0.78668 -1.872097,1.74263 h -1.244744 c 0.02409,-1.63609 1.405067,-2.75833 3.118831,-2.75833 1.923876,0 3.065061,1.09138 3.065061,2.86989 0,1.13319 -0.865347,1.88701 -1.55643,2.18675 h 6.05344 v -3.4534 l -2.607988,0.86932 v -1.16906 l 3.631668,-1.30452 h 0.202144 v 5.05867 h 5.233902 l 1.184995,-7.56608 c 0.0079,-0.0568 0.01017,-0.11437 0.01204,-0.17124 a 1.8342551,1.8342551 0 0 0 -1.832244,-1.76454 z m -0.612411,9.65523 -0.6084342,7.84388 a 1.8382384,1.8382384 0 0 0 1.8352502,1.9657 H 29.34753 a 1.8382384,1.8382384 0 0 0 1.834259,-1.9657 l -0.608431,-7.84388 H 25.36236 v 5.21102 h -1.226822 v -5.21102 h -5.781589 c 0.632333,0.27588 1.436933,0.90418 1.433945,2.24554 0,1.94177 -1.45087,2.96744 -3.210441,2.96744 -1.523569,0 -3.162648,-0.81155 -3.216419,-2.75936 h 1.252708 c 0.02785,1.20892 0.950988,1.75063 1.963711,1.75063 1.163087,0 1.967689,-0.61042 1.967689,-1.93184 0,-1.00974 -0.55167,-1.88005 -2.228588,-1.88005 h -0.869329 v -0.39236 z m 1.843214,-13.48507 c -1.0157116,0 -1.8382353,0.82254 -1.8382353,1.83824 l 0.00602,1.94877 A 1.8223056,1.8223056 0 0 1 9.732398,276.46054 H 29.95501 c 0.21607,0 0.420225,0.0448 0.613413,0.1125 v -1.94979 c 0,-1.01569 -0.822528,-1.83824 -1.838239,-1.83824 z m 3.06506,0.91814 a 0.91911918,0.91911918 0 0 1 0.918124,0.9201 0.91911918,0.91911918 0 0 1 -0.918124,0.91715 0.91911918,0.91911918 0 0 1 -0.920115,-0.91715 0.91911918,0.91911918 0 0 1 0.920115,-0.9201 z m 11.642839,0 a 0.91911918,0.91911918 0 0 1 0.920115,0.9201 0.91911918,0.91911918 0 0 1 -0.920115,0.91715 0.91911918,0.91911918 0 0 1 -0.918123,-0.91715 0.91911918,0.91911918 0 0 1 0.918123,-0.9201 z"
       inkscape:connector-curvature="0"
       style="fill:#ff282d;fill-opacity:1;stroke-width:0.99579543" />
  </g>
</svg>
