<?xml version="1.0" encoding="UTF-8" standalone="no"?>
<!-- Created with Inkscape (http://www.inkscape.org/) -->

<svg
   xmlns:dc="http://purl.org/dc/elements/1.1/"
   xmlns:cc="http://creativecommons.org/ns#"
   xmlns:rdf="http://www.w3.org/1999/02/22-rdf-syntax-ns#"
   xmlns:svg="http://www.w3.org/2000/svg"
   xmlns="http://www.w3.org/2000/svg"
   xmlns:xlink="http://www.w3.org/1999/xlink"
   xmlns:sodipodi="http://sodipodi.sourceforge.net/DTD/sodipodi-0.dtd"
   xmlns:inkscape="http://www.inkscape.org/namespaces/inkscape"
   width="150"
   height="95"
   viewBox="0 0 39.687501 25.135417"
   version="1.1"
   id="svg8"
   sodipodi:docname="logo.svg"
   inkscape:version="0.92.4 (5da689c313, 2019-01-14)">
  <defs
     id="defs2">
    <linearGradient
       inkscape:collect="always"
       id="linearGradient4596">
      <stop
         style="stop-color:#000000;stop-opacity:1;"
         offset="0"
         id="stop4592" />
      <stop
         id="stop4600"
         offset="0.74943906"
         style="stop-color:#4d4d4d;stop-opacity:1" />
      <stop
         style="stop-color:#000000;stop-opacity:0.849"
         offset="1"
         id="stop4594" />
    </linearGradient>
    <inkscape:path-effect
       effect="bend_path"
       id="path-effect4556"
       is_visible="true"
       bendpath="M 58.604102,103.71486 C 43.684205,85.711523 78.757357,42.191058 131.93911,104.71281"
       prop_scale="1.0569027"
       scale_y_rel="false"
       vertical="false"
       bendpath-nodetypes="cc" />
    <linearGradient
       inkscape:collect="always"
       id="linearGradient4541">
      <stop
         style="stop-color:#0000ff;stop-opacity:1"
         offset="0"
         id="stop4537" />
      <stop
         style="stop-color:#ffe680;stop-opacity:1"
         offset="1"
         id="stop4539" />
    </linearGradient>
    <radialGradient
       inkscape:collect="always"
       xlink:href="#linearGradient4541"
       id="radialGradient4543"
       cx="262.18848"
       cy="337.97949"
       fx="262.18848"
       fy="337.97949"
       r="110.76075"
       gradientTransform="matrix(0.26458333,0,0,0.26898298,-37.075665,176.08927)"
       gradientUnits="userSpaceOnUse" />
    <radialGradient
       inkscape:collect="always"
       xlink:href="#linearGradient4596"
       id="radialGradient4598"
       cx="89.173241"
       cy="86.959312"
       fx="89.173241"
       fy="86.959312"
       r="44.912834"
       gradientTransform="matrix(1,0,0,0.5441798,0,39.637812)"
       gradientUnits="userSpaceOnUse" />
    <radialGradient
       inkscape:collect="always"
       xlink:href="#linearGradient4596"
       id="radialGradient846"
       gradientUnits="userSpaceOnUse"
       gradientTransform="matrix(1,0,0,0.5441798,0,39.637812)"
       cx="89.173241"
       cy="86.959312"
       fx="89.173241"
       fy="86.959312"
       r="44.912834" />
    <radialGradient
       inkscape:collect="always"
       xlink:href="#linearGradient4596"
       id="radialGradient848"
       gradientUnits="userSpaceOnUse"
       gradientTransform="matrix(1,0,0,0.5441798,0,39.637812)"
       cx="89.173241"
       cy="86.959312"
       fx="89.173241"
       fy="86.959312"
       r="44.912834" />
    <radialGradient
       inkscape:collect="always"
       xlink:href="#linearGradient4596"
       id="radialGradient850"
       gradientUnits="userSpaceOnUse"
       gradientTransform="matrix(1,0,0,0.5441798,0,39.637812)"
       cx="89.173241"
       cy="86.959312"
       fx="89.173241"
       fy="86.959312"
       r="44.912834" />
    <radialGradient
       inkscape:collect="always"
       xlink:href="#linearGradient4596"
       id="radialGradient852"
       gradientUnits="userSpaceOnUse"
       gradientTransform="matrix(1,0,0,0.5441798,0,39.637812)"
       cx="89.173241"
       cy="86.959312"
       fx="89.173241"
       fy="86.959312"
       r="44.912834" />
    <radialGradient
       inkscape:collect="always"
       xlink:href="#linearGradient4596"
       id="radialGradient854"
       gradientUnits="userSpaceOnUse"
       gradientTransform="matrix(1,0,0,0.5441798,0,39.637812)"
       cx="89.173241"
       cy="86.959312"
       fx="89.173241"
       fy="86.959312"
       r="44.912834" />
  </defs>
  <sodipodi:namedview
     id="base"
     pagecolor="#ffffff"
     bordercolor="#666666"
     borderopacity="1.0"
     inkscape:pageopacity="0.0"
     inkscape:pageshadow="2"
     inkscape:zoom="0.98994949"
     inkscape:cx="185.50918"
     inkscape:cy="133.51507"
     inkscape:document-units="px"
     inkscape:current-layer="layer1"
     showgrid="false"
     inkscape:window-width="1366"
     inkscape:window-height="715"
     inkscape:window-x="-8"
     inkscape:window-y="-8"
     inkscape:window-maximized="1"
     inkscape:pagecheckerboard="true"
     units="px" />
  <metadata
     id="metadata5">
    <rdf:RDF>
      <cc:Work
         rdf:about="">
        <dc:format>image/svg+xml</dc:format>
        <dc:type
           rdf:resource="http://purl.org/dc/dcmitype/StillImage" />
        <dc:title></dc:title>
      </cc:Work>
    </rdf:RDF>
  </metadata>
  <g
     inkscape:label="Layer 1"
     inkscape:groupmode="layer"
     id="layer1"
     transform="translate(0,-271.86458)">
    <g
       id="g844"
       transform="matrix(0.42211394,0,0,0.42183774,-1.2619473,171.80161)"
       style="opacity:0.98999999">
      <path
         inkscape:connector-curvature="0"
         id="path4518"
         d="m 32.472026,237.20724 a 29.482142,29.860115 0 0 0 -29.4824379,29.8602 29.482142,29.860115 0 0 0 26.8242039,29.72531 l -0.494027,-16.10806 -13.741797,-8.84855 15.382007,-5.52473 4.169254,-15.80317 10.007658,12.92169 16.317867,-0.9188 0.145728,0.11162 A 29.482142,29.860115 0 0 0 32.472026,237.20724 Z"
         style="fill:url(#radialGradient4543);fill-opacity:1;fill-rule:evenodd;stroke-width:0.26458332" />
      <g
         transform="translate(-37.075665,177.57626)"
         inkscape:path-effect="#path-effect4556"
         id="text4535"
         style="font-style:normal;font-variant:normal;font-weight:bold;font-stretch:normal;font-size:30.53398705px;line-height:1.25;font-family:'Times New Roman';-inkscape-font-specification:'Times New Roman, Bold';font-variant-ligatures:normal;font-variant-caps:normal;font-variant-numeric:normal;font-feature-settings:normal;text-align:start;letter-spacing:0px;word-spacing:0px;writing-mode:lr-tb;text-anchor:start;fill:url(#radialGradient4598);fill-opacity:1;stroke:none;stroke-width:0.73272187"
         aria-label="FBook">
        <path
           inkscape:original-d="m 52.322427,81.323388 v 8.30441 h 0.581458 q 1.341825,0 2.191648,-0.402548 0.849823,-0.402548 1.431281,-1.356735 0.596367,-0.954187 0.775277,-2.579287 h 0.521821 v 10.153147 h -0.521821 q -0.283275,-2.87747 -1.550554,-3.78693 -1.252371,-0.924368 -2.847652,-0.924368 h -0.581458 v 6.187306 q 0,1.550555 0.164001,1.938193 0.17891,0.387639 0.670912,0.685822 0.506912,0.283274 1.356735,0.283274 h 0.670913 v 0.551638 H 44.614384 v -0.551638 h 0.670913 q 0.879641,0 1.416371,-0.313092 0.387639,-0.208729 0.596367,-0.715641 0.164001,-0.35782 0.164001,-1.878556 V 83.619401 q 0,-1.550554 -0.164001,-1.938193 -0.164001,-0.387638 -0.670912,-0.670912 -0.492003,-0.298184 -1.341826,-0.298184 h -0.670913 v -0.551639 h 17.056094 v 5.799668 h -0.611276 q -0.208728,-2.042557 -1.07346,-3.026562 -0.849823,-0.984006 -2.474923,-1.386553 -0.89455,-0.223638 -3.309836,-0.223638 z"
           inkscape:connector-curvature="0"
           id="path4545"
           style="fill:url(#radialGradient846);fill-opacity:1;stroke-width:0.73272187"
           d="m 45.526086,95.291411 8.753404,-0.470633 c -0.01394,-0.26082 -0.02217,-0.521754 -0.0248,-0.782607 -0.01228,-1.217042 -0.04787,-2.172663 -0.219004,-2.998015 -0.167767,-0.809096 -0.49797,-1.556145 -1.015698,-2.268424 -0.510739,-0.721457 -1.27535,-1.36364 -2.312972,-1.879024 0.08261,-0.272145 0.169932,-0.542446 0.261878,-0.810765 l 10.170873,3.435842 c -0.05161,0.156485 -0.100837,0.313532 -0.14758,0.470999 -1.997833,-0.414794 -3.441475,-0.240053 -4.282042,0.651792 -0.830606,0.859037 -1.304316,2.039888 -1.29098,3.386007 0.0024,0.244066 0.01013,0.48802 0.02325,0.73167 l 6.521835,-0.350651 c 1.078432,-0.05798 1.779341,-0.134733 2.037727,-0.209406 0.268651,-0.08376 0.506003,-0.223048 0.717953,-0.408917 0.202777,-0.192775 0.314138,-0.439829 0.354856,-0.771077 0.01611,-0.131064 0.03551,-0.263672 0.05801,-0.397531 l 0.57654,0.08857 c -0.121835,0.716612 -0.148439,1.387973 -0.04438,1.958455 0.127761,0.907349 0.506107,1.856146 1.018003,2.395141 l -0.445597,0.376144 c -0.05852,-0.06297 -0.1154,-0.130098 -0.170535,-0.200934 -0.144366,-0.185479 -0.338872,-0.295393 -0.612085,-0.330568 -0.184379,-0.0311 -0.453685,1.19e-4 -0.804321,0.09345 -0.238182,0.05767 -0.871315,0.325613 -1.823028,0.788141 l -12.634331,6.14023 c -0.984655,0.47854 -1.546922,0.86993 -1.690407,1.19827 -0.140616,0.32178 -0.14024,0.8525 0.0489,1.57637 0.168522,0.70694 0.594132,1.60349 1.332827,2.6022 0.292298,0.39519 0.596874,0.78393 0.913613,1.16579 l -0.445597,0.37614 c -3.249888,-3.92021 -5.246989,-8.54051 -5.874267,-13.409649 v -1e-6 c -0.575066,-4.811006 0.0054,-9.4579 1.547506,-13.636135 0.829512,-2.187542 1.856664,-4.248809 3.056386,-6.167453 l 5.168746,3.248549 c -0.16811,0.268215 -0.331765,0.539651 -0.490839,0.814224 -1.348697,-0.530982 -2.569253,-0.545113 -3.649571,0.05839 -0.852868,0.467437 -1.730863,1.322999 -2.526592,2.605114 0,0 0,10e-7 0,10e-7 -0.190719,0.312403 -0.374997,0.650532 -0.549967,1.014316 -0.457904,0.948977 -1.211179,3.102551 -1.456535,6.183497 -0.09763,1.225946 -0.116068,2.472273 -0.05118,3.732493 z" />
        <path
           inkscape:original-d="m 76.177104,89.657616 q 2.87747,0.670913 4.040386,1.6251 1.669827,1.356735 1.669827,3.518565 0,2.281103 -1.833828,3.772021 -2.251285,1.804008 -6.545127,1.804008 H 63.235941 v -0.551638 q 1.401462,0 1.893465,-0.253456 0.506912,-0.268365 0.700731,-0.685822 0.208729,-0.417456 0.208729,-2.057466 V 83.708856 q 0,-1.640009 -0.208729,-2.057466 -0.193819,-0.432366 -0.700731,-0.685822 -0.506912,-0.253456 -1.893465,-0.253456 v -0.551639 h 9.690963 q 3.473837,0 4.920027,0.626185 1.44619,0.611276 2.281104,1.848737 0.834913,1.222553 0.834913,2.609106 0,1.461099 -1.058551,2.609105 -1.058551,1.133097 -3.727293,1.80401 z m -5.426939,-0.402548 q 2.117102,0 3.116017,-0.477093 1.013824,-0.477094 1.550554,-1.341826 0.53673,-0.864732 0.53673,-2.206557 0,-1.341826 -0.53673,-2.191649 -0.521821,-0.864732 -1.505827,-1.312007 -0.984005,-0.447275 -3.160744,-0.432366 z m 0,1.162916 v 6.48549 l -0.01491,0.745459 q 0,0.805095 0.402548,1.222552 0.417457,0.402548 1.222552,0.402548 1.192734,0 2.191649,-0.521821 1.013824,-0.53673 1.550554,-1.535645 0.53673,-1.013824 0.53673,-2.251285 0,-1.416372 -0.656004,-2.53456 -0.656003,-1.133097 -1.80401,-1.580372 -1.148006,-0.447275 -3.429109,-0.432366 z"
           inkscape:connector-curvature="0"
           id="path4547"
           style="fill:url(#radialGradient848);fill-opacity:1;stroke-width:0.73272187"
           d="m 72.864197,72.133657 c 2.528527,-0.132922 4.343879,0.339691 5.309126,0.932887 1.436996,0.874055 2.047144,2.1447 2.033787,3.653317 -0.01423,1.607146 -0.692426,2.88918 -1.741562,3.978121 -1.350562,1.381364 -2.887044,2.07195 -4.85872,3.033537 -0.01759,0.0086 -0.03516,0.01721 -0.05269,0.0259 -2.249867,0.92398 -4.393718,2.498237 -5.839853,4.336974 L 67.25183,87.742109 c 0.418785,-0.534153 0.674124,-0.918989 0.718016,-1.225745 0.04054,-0.312653 0.0011,-0.610228 -0.130447,-0.891781 -0.122977,-0.28066 -0.589269,-0.854691 -1.385905,-1.683488 l -9.61205,-10.000099 c -0.802705,-0.835112 -1.386926,-1.272151 -1.772878,-1.307188 -0.37598,-0.05454 -0.846927,0.07282 -1.39747,0.402441 -0.534876,0.320238 -1.418684,1.139408 -2.442861,2.499779 l -0.462459,-0.352281 c 3.672855,-4.880691 8.546828,-8.647294 14.11356,-10.96835 0.295314,-0.123132 0.586718,-0.238443 0.873707,-0.346332 0,0 10e-7,0 10e-7,0 3.526622,-1.205385 6.244966,-1.458927 7.76854,-1.313482 1.707311,0.152891 3.038611,0.681018 3.983096,1.477187 0.946875,0.788333 1.387798,1.696564 1.414471,2.662445 0.02831,1.025164 -0.470871,1.944094 -1.386181,2.814516 -0.949749,0.891702 -2.483538,1.608173 -4.668773,2.623926 z m -6.868751,2.236808 c 1.361163,-0.772296 2.367646,-1.313365 3.147399,-1.85934 0.184165,-0.127608 0.349213,-0.251895 0.4953,-0.374438 0.754581,-0.62683 1.302868,-1.274685 1.631338,-1.992414 0.326453,-0.713318 0.400663,-1.52536 0.17072,-2.431324 -0.23024,-0.907136 -0.686581,-1.584044 -1.41978,-2.004125 -0.716153,-0.431972 -1.675152,-0.643116 -2.868644,-0.57673 -0.257771,0.01434 -0.545544,0.04866 -0.862165,0.104921 -1.140843,0.236682 -2.69149,0.79338 -4.458156,1.801019 1.387996,2.444144 2.775992,4.888287 4.163988,7.332431 z m 0.608223,1.07103 3.392013,5.973047 c 0.125971,0.231135 0.252124,0.46217 0.378458,0.693106 0.280392,0.492844 0.596605,0.811784 0.926236,0.964883 0.334589,0.141256 0.681139,0.116287 1.061895,-0.0637 0.263432,-0.124524 0.50229,-0.272658 0.722339,-0.448457 0.254837,-0.221998 0.489364,-0.475982 0.708327,-0.766807 0.41354,-0.556046 0.711074,-1.198754 0.866968,-1.959183 0.153131,-0.769137 0.167202,-1.575315 -0.01759,-2.417388 -0.211518,-0.963878 -0.626177,-1.778287 -1.314667,-2.409429 -0.688127,-0.63855 -1.554019,-0.97469 -2.566804,-0.952896 -0.288684,0.0062 -0.612335,0.04293 -0.967658,0.114456 0,0 0,0 0,0 -0.88255,0.177006 -1.980261,0.577045 -3.18952,1.272364 z" />
        <path
           inkscape:original-d="m 90.594275,86.019778 q 1.818919,0 3.384383,0.939278 1.565463,0.939278 2.370558,2.668742 0.820005,1.729464 0.820005,3.78693 0,2.966925 -1.505827,4.964754 -1.818919,2.415288 -5.024391,2.415288 -3.145836,0 -4.845482,-2.206559 -1.699645,-2.206558 -1.699645,-5.113847 0,-2.996743 1.729464,-5.21821 1.744373,-2.236376 4.770935,-2.236376 z m 0.05964,1.058551 q -0.760368,0 -1.312007,0.581458 -0.536731,0.566548 -0.715641,2.266194 -0.164001,1.684737 -0.164001,4.69639 0,1.595281 0.208729,2.981834 0.164001,1.058552 0.700731,1.610191 0.53673,0.55164 1.222552,0.55164 0.670913,0 1.118188,-0.37273 0.581458,-0.506912 0.775277,-1.416371 0.298184,-1.416372 0.298184,-5.725123 0,-2.534559 -0.283275,-3.473837 -0.283274,-0.954187 -0.834913,-1.386553 -0.387639,-0.313093 -1.013824,-0.313093 z"
           inkscape:connector-curvature="0"
           id="path4549"
           style="fill:url(#radialGradient850);fill-opacity:1;stroke-width:0.73272187"
           d="m 92.654509,69.405132 c 1.656902,0.508242 3.049848,1.387025 4.128783,2.557836 0.170997,0.185558 0.329183,0.374918 0.474674,0.567616 0,0 0,0 0,0 0.762469,1.011596 1.182148,2.114475 1.279759,3.287936 0.127846,1.402094 -0.154181,2.743943 -0.785306,4.042211 -0.909911,1.871751 -2.216019,3.172904 -3.808525,4.005049 -0.575458,0.301001 -1.15401,0.525093 -1.737645,0.674691 -1.344156,0.394961 -2.680608,0.377504 -4.097466,-0.04304 -1.969365,-0.584534 -3.269381,-1.664846 -4.157186,-3.4017 -0.876597,-1.71493 -1.359661,-3.596223 -1.175292,-5.623737 0.191007,-2.10051 1.039953,-3.887322 2.844997,-5.222297 1.806,-1.333046 4.265267,-1.693612 7.033207,-0.844566 z m -0.249195,1.10481 c -0.676092,-0.208344 -1.323963,-0.174671 -1.921034,0.09507 -0.58391,0.264279 -1.091694,0.967472 -1.52941,2.106427 -0.42539,1.139349 -0.870042,2.730643 -1.367468,4.823041 -0.261917,1.101738 -0.429784,2.155505 -0.519812,3.147367 -0.06555,0.758211 0.03156,1.375791 0.282458,1.848087 0.251895,0.474172 0.59143,0.773034 1.035974,0.905039 0.434915,0.129145 0.837381,0.116666 1.215733,-0.03985 0.49581,-0.218018 0.924042,-0.604565 1.274822,-1.165568 0.533756,-0.858378 1.364502,-2.757006 2.418854,-5.60164 0.625944,-1.68879 0.938759,-2.875236 0.928307,-3.594037 -0.0068,-0.723071 -0.199552,-1.316121 -0.582578,-1.771742 -0.266451,-0.325682 -0.679466,-0.580739 -1.235846,-0.752194 z" />
        <path
           inkscape:original-d="m 105.86127,86.019778 q 1.81892,0 3.38438,0.939278 1.56547,0.939278 2.37056,2.668742 0.82001,1.729464 0.82001,3.78693 0,2.966925 -1.50583,4.964754 -1.81892,2.415288 -5.02439,2.415288 -3.14584,0 -4.84548,-2.206559 -1.69965,-2.206558 -1.69965,-5.113847 0,-2.996743 1.72946,-5.21821 1.74438,-2.236376 4.77094,-2.236376 z m 0.0596,1.058551 q -0.76037,0 -1.31201,0.581458 -0.53673,0.566548 -0.71564,2.266194 -0.164,1.684737 -0.164,4.69639 0,1.595281 0.20873,2.981834 0.164,1.058552 0.70073,1.610191 0.53673,0.55164 1.22255,0.55164 0.67091,0 1.11819,-0.37273 0.58146,-0.506912 0.77527,-1.416371 0.29819,-1.416372 0.29819,-5.725123 0,-2.534559 -0.28328,-3.473837 -0.28327,-0.954187 -0.83491,-1.386553 -0.38764,-0.313093 -1.01382,-0.313093 z"
           inkscape:connector-curvature="0"
           id="path4551"
           style="fill:url(#radialGradient852);fill-opacity:1;stroke-width:0.73272187"
           d="m 111.30931,78.833542 c 1.34759,0.928601 2.38281,2.097416 3.08256,3.465742 0.70037,1.369531 0.91772,2.756694 0.67936,4.138156 -0.2287,1.391316 -0.82914,2.634027 -1.76328,3.744827 -1.34759,1.602437 -2.94662,2.538125 -4.73585,2.88931 -2.17233,0.427339 -4.14507,-0.07105 -6.07391,-1.427668 -1.88965,-1.329065 -2.965726,-2.885881 -3.290801,-4.861585 -0.323321,-1.965005 -0.07659,-3.864092 0.888801,-5.655814 0.99582,-1.848203 2.48754,-3.129145 4.5869,-3.716178 2.10609,-0.586757 4.3797,-0.124831 6.62622,1.42321 z m -0.56887,0.96085 c -0.55539,-0.383894 -1.15468,-0.540651 -1.78551,-0.469354 -0.61587,0.07004 -1.31,0.564915 -2.08576,1.482673 -0.76222,0.919357 -1.70193,2.258966 -2.84564,4.038649 -0.60388,0.939676 -1.09944,1.865126 -1.49315,2.767224 -0.29769,0.690841 -0.38369,1.309674 -0.26339,1.855021 0.12052,0.546329 0.38719,0.962532 0.80703,1.256893 0.41081,0.288025 0.82607,0.426167 1.25221,0.412586 0.5625,-0.03038 1.09455,-0.254473 1.5935,-0.679474 0.76733,-0.657186 2.07585,-2.213705 3.87599,-4.636537 1.06399,-1.432029 1.69276,-2.478151 1.88657,-3.158417 0.19918,-0.685675 0.19,-1.294934 -0.0299,-1.825478 -0.15057,-0.377624 -0.45465,-0.72772 -0.91191,-1.043786 z" />
        <path
           inkscape:original-d="m 120.2188,80.160473 v 13.298982 l 3.2353,-3.175654 q 0.99891,-0.969096 1.23746,-1.401462 0.25345,-0.432366 0.25345,-0.834914 0,-0.402547 -0.328,-0.670912 -0.328,-0.268366 -1.28219,-0.387639 v -0.551639 h 6.24695 v 0.551639 q -0.89455,0.04473 -1.56547,0.432366 -0.67091,0.372729 -2.62401,2.281104 l -1.52074,1.490917 3.28002,4.800754 q 1.98292,2.922198 2.35565,3.280018 0.50691,0.506912 1.28219,0.566548 v 0.536729 h -7.20113 v -0.536729 q 0.47709,0 0.68582,-0.17891 0.22364,-0.17891 0.22364,-0.387638 0,-0.342911 -0.62619,-1.26728 l -2.7582,-4.040386 -0.89455,0.879641 v 2.504742 q 0,1.595281 0.29819,1.997829 0.29818,0.387638 1.22255,0.492002 v 0.536729 h -7.20113 v -0.536729 q 0.87964,-0.08946 1.25237,-0.566548 0.25346,-0.328002 0.25346,-1.923283 V 83.187035 q 0,-1.580373 -0.29819,-1.968011 -0.28327,-0.387639 -1.20764,-0.506912 v -0.551639 z"
           inkscape:connector-curvature="0"
           id="path4553"
           style="fill:url(#radialGradient854);fill-opacity:1;stroke-width:0.73272187"
           d="m 130.4295,86.830068 -10.00659,9.997236 c 1.75524,0.16527 3.52343,0.370678 5.29782,0.610925 1.09276,0.154316 1.81585,0.212203 2.18426,0.155812 0.37434,-0.04646 0.66671,-0.165386 0.87667,-0.358723 0.20986,-0.19324 0.28812,-0.45985 0.23268,-0.800299 -0.0553,-0.339546 -0.33703,-0.847966 -0.85166,-1.516218 l 0.42653,-0.403058 c 1.89396,2.006472 3.72411,4.056441 5.49687,6.127287 l -0.44209,0.38184 c -0.53069,-0.57064 -1.09374,-0.98585 -1.68487,-1.244256 -0.5725,-0.2605 -1.9548,-0.596474 -4.08049,-0.92651 -0.83258,-0.127867 -1.66445,-0.248677 -2.49491,-0.361881 -0.28329,2.187227 -0.61003,4.352937 -0.96744,6.497207 -0.44684,2.62646 -0.68974,4.04929 -0.67835,4.47057 0.004,0.54515 0.19779,1.06788 0.58282,1.57213 l -0.43196,0.36784 c -1.93369,-2.20828 -3.88667,-4.37901 -5.86873,-6.47753 l 0.41581,-0.39128 c 0.26364,0.2792 0.49881,0.4376 0.7069,0.47427 0.21623,0.0455 0.3787,0.0183 0.48724,-0.0823 0.17764,-0.16472 0.33582,-0.65671 0.46416,-1.47646 0.27483,-1.79941 0.52288,-3.612928 0.73654,-5.440607 -0.48468,-0.0485 -0.96842,-0.09402 -1.45109,-0.136436 l -1.88465,1.882888 c -0.79972,0.798975 -1.2167,1.385985 -1.25129,1.755765 -0.0272,0.36364 0.19166,0.8326 0.6535,1.41491 l -0.40959,0.39787 c -1.99763,-2.05916 -4.02685,-4.037218 -6.09744,-5.899516 l 0.37737,-0.425835 c 0.55095,0.410092 1.04494,0.59344 1.48835,0.542992 0.30199,-0.03603 0.837,-0.469431 1.59979,-1.300593 l 10.16405,-11.075144 c 0.75645,-0.824267 1.12504,-1.428762 1.10341,-1.818471 -0.0112,-0.37857 -0.31011,-0.890826 -0.90663,-1.525104 l 0.38785,-0.437664 c 2.01581,1.763862 3.95593,3.585649 5.82516,5.448353 z" />
      </g>
    </g>
  </g>
</svg>
